<?xml version="1.0" encoding="UTF-8" standalone="no"?><!DOCTYPE svg PUBLIC "-//W3C//DTD SVG 1.1//EN" "http://www.w3.org/Graphics/SVG/1.1/DTD/svg11.dtd"><svg width="100%" height="100%" viewBox="0 0 1094 984" version="1.1" xmlns="http://www.w3.org/2000/svg" xmlns:xlink="http://www.w3.org/1999/xlink" xml:space="preserve" xmlns:serif="http://www.serif.com/" style="fill-rule:evenodd;clip-rule:evenodd;stroke-linejoin:round;stroke-miterlimit:2;"><path d="M-0,799.055c0.112,-3.687 0.779,-25.547 6.684,-45.617c2.199,-7.474 10.491,-43.483 42.724,-77.755c54.741,-58.204 117.298,-57.698 127.574,-59.18c10.315,-1.487 9.332,-8.435 9.286,-17.419c-0.067,-13.028 -0.457,-89.342 34.794,-159.09c4.11,-8.132 15.082,-33.235 41.941,-66.958c29.415,-36.934 48.159,-52.021 77.258,-72.678c27.398,-19.449 28.228,-18.004 58.034,-33.369c12.458,-6.422 64.16,-24.067 99.574,-28.542c62.543,-7.904 97.291,3.519 108.43,-1.341c5.204,-2.27 13.505,-15.082 17.771,-29.267c6.677,-22.203 1.517,-45.686 -2.184,-54.252c-18.159,-42.033 -64.763,-63.292 -107.426,-45.953c-25.15,10.222 -35.357,27.008 -35.479,27.151c-1.186,1.385 -24.887,23.301 -47.639,17.279c-39.611,-10.485 -43.718,-41.883 -41.487,-57.072c0.692,-4.716 3.436,-23.396 33.512,-49.258c13.755,-11.828 36.638,-25.94 45.306,-29.687c95.585,-41.317 197.878,1.085 239.071,82.186c40.893,80.512 14.616,139.051 3.627,163.869c-6.98,15.763 4.204,15.349 16.197,23.381c15.913,10.658 15.882,10.675 17.275,11.586c3.416,2.234 25.309,16.554 40.471,31.074c24.938,23.883 58.912,57.388 87.848,120.75c5.983,13.101 43.194,96.89 26.309,200.511c-9.277,56.932 -25.964,90.659 -37.6,113.057c-22.903,44.089 -33.256,42.466 -27.378,57.778c7.72,20.113 31.006,34.471 34.426,36.581c24.092,14.856 56.341,12.876 75.4,2.041c7.773,-4.419 25.045,-12.232 36.643,-34.809c20.342,-39.599 2.557,-68.194 1.223,-83.405c-5.293,-60.35 68.169,-75.724 93.515,-32.561c3.791,6.456 11.735,31.247 12.241,33.13c7.841,29.204 4.868,61.865 4.142,65.944c-10.073,56.577 -32.519,82.508 -34.217,84.936c-3.106,4.441 -20.009,28.609 -48.663,47.126c-0.931,0.601 -22.628,12.576 -27.785,14.86c-54,23.925 -111.966,10.674 -121.462,8.504c-5.653,-1.292 -27.383,-6.259 -64.93,-32.219c-0.734,-0.507 -24.433,-22.553 -28.851,-28.592c-7.713,-10.542 -9.611,-17.818 -26.483,-6.37c-27.102,18.39 -28.494,15.84 -57.742,30.569c-28.808,14.507 -94.589,25.299 -101.03,25.751c-69.871,4.907 -96.483,-3.935 -125.05,-10.252c-42.735,-9.45 -87.07,-34.152 -91.972,-37.481c-10.097,-6.859 -69.098,-37.795 -119.551,-113.724c-20.52,-30.881 -30.367,-60.214 -34.917,-65.448c-7.48,-8.605 -33.743,-7.302 -44.781,-3.933c-20.726,6.325 -32.504,13.38 -44.95,29.078c-24.685,31.134 -20.099,72.163 -4.7,94.547c22.241,32.329 39.019,32.609 61.645,38.855c42.724,11.794 47.054,56.2 30.26,78.822c-23.915,32.214 -60.679,18.55 -63.785,17.812c-85.716,-20.355 -142.263,-93.079 -143.117,-180.947Zm745.871,-162.801c4.362,-20.092 6.283,-34.77 3.229,-66.48c-0.296,-3.071 -5.977,-29.639 -6.836,-32.887c-1.697,-6.414 -10.196,-38.548 -38.268,-73.574c-24.059,-30.019 -60.978,-50.453 -64.462,-52.048c-41.444,-18.971 -51.321,-18.133 -83.77,-22.619c-13.082,-1.809 -56.531,1.854 -83.588,13.401c-14.837,6.332 -28.962,11.921 -41.6,21.393c-18.78,14.076 -32.241,21.99 -54.838,54.073c-28.879,41 -33.109,83.059 -33.266,83.869c-8.214,42.289 2.715,94.549 16.752,121.582c27.34,52.652 55.159,71.426 76.836,85.652c4.747,3.116 29.085,19.088 65.692,26.879c79.991,17.024 166.732,-15.148 214.285,-86.984c22.245,-33.604 24.77,-50.727 29.835,-72.257Z"/></svg>